<svg xmlns="http://www.w3.org/2000/svg" xmlns:xlink="http://www.w3.org/1999/xlink" version="1.1" viewBox="0 0 2500 1000" style="background: #ffffff"><g transform="translate(25,100)"><rect width="450" height="300" rx="3" ry="3" x="0" y="0" fill="#ffffff" stroke-width="2" stroke="#0f5eaa" stroke-dasharray=""/><text x="225" y="77" text-anchor="middle" dominant-baseline="hanging" fill="#0f5eaa" font-size="30px" font-family="Tahoma, Verdana, Helvetica, Arial"><tspan x="225" dy="40px">Boundary, Software</tspan><tspan x="225" dy="40px">System</tspan></text></g><g transform="translate(525,100)"><rect width="450" height="300" rx="3" ry="3" x="0" y="0" fill="#438dd5" stroke-width="2" stroke="#3c7fc0" stroke-dasharray=""/><text x="225" y="95" text-anchor="middle" dominant-baseline="hanging" fill="#ffffff" font-size="30px" font-family="Tahoma, Verdana, Helvetica, Arial"><tspan x="225" dy="40px">Container</tspan></text></g><g transform="translate(1025,100)"><path id="keyElementCylinderPath" d="M 0,22.5 a 225,22.5 0,0,0 450 0 a 225,22.5 0,0,0 -450 0 l 0,255 a 225,22.5 0,0,0 450 0 l 0,-255" fill="#438dd5" stroke-width="2" stroke="#3c7fc0" stroke-dasharray=""></path><text x="225" y="117.5" text-anchor="middle" dominant-baseline="hanging" fill="#ffffff" font-size="30px" font-family="Tahoma, Verdana, Helvetica, Arial"><tspan x="225" dy="40px">Container, Database</tspan></text></g><g transform="translate(1525,100)"><path id="keyElementPipePath" d="M 22.5,0 a 22.5,150 0,0,1 0 300 a 22.5,150 0,0,1 0 -300 l 405,0 a 22.5,150 0,0,1 0 300 l -405,0" fill="#438dd5" stroke-width="2" stroke="#3c7fc0" stroke-dasharray=""></path><text x="225" y="95" text-anchor="middle" dominant-baseline="hanging" fill="#ffffff" font-size="30px" font-family="Tahoma, Verdana, Helvetica, Arial"><tspan x="225" dy="40px">Container, Queue</tspan></text></g><g transform="translate(2025,100)"><rect width="450" height="300" rx="10" ry="10" x="0" y="0" fill="#3c7fc0" stroke-width="0" stroke="#3c7fc0" stroke-dasharray=""/><rect width="446" height="258" rx="10" ry="10" x="2" y="40" fill="#438dd5" stroke-width="0"/><rect width="340" height="20" rx="10" ry="10" x="100" y="10" fill="#438dd5" stroke-width="0"/><ellipse cx="20" cy="20" rx="10" ry="10" fill="#438dd5" stroke-width="0"/><ellipse cx="50" cy="20" rx="10" ry="10" fill="#438dd5" stroke-width="0"/><ellipse cx="80" cy="20" rx="10" ry="10" fill="#438dd5" stroke-width="0"/><text x="225" y="115" text-anchor="middle" dominant-baseline="hanging" fill="#ffffff" font-size="30px" font-family="Tahoma, Verdana, Helvetica, Arial"><tspan x="225" dy="40px">Container, Web Browser</tspan></text></g><g transform="translate(25,525)"><rect x="0" y="180" width="450" height="270" rx="90" fill="#08427b" stroke-width="2" stroke="#073b6f" stroke-dasharray=""/><circle cx="225" cy="100" r="100" fill="#08427b" stroke-width="2" stroke="#073b6f" stroke-dasharray=""/><line x1="90" y1="300" x2="90" y2="450" stroke-width="1" stroke="#073b6f" stroke-dasharray=""/><line x1="360" y1="300" x2="360" y2="450" stroke-width="1" stroke="#073b6f" stroke-dasharray=""/><text x="225" y="260" text-anchor="middle" dominant-baseline="hanging" fill="#ffffff" font-size="30px" font-family="Tahoma, Verdana, Helvetica, Arial"><tspan x="225" dy="40px">Person</tspan></text></g><g transform="translate(525,600)"><rect width="450" height="300" rx="3" ry="3" x="0" y="0" fill="#999999" stroke-width="2" stroke="#8a8a8a" stroke-dasharray=""/><text x="225" y="77" text-anchor="middle" dominant-baseline="hanging" fill="#ffffff" font-size="30px" font-family="Tahoma, Verdana, Helvetica, Arial"><tspan x="225" dy="40px">Software System,</tspan><tspan x="225" dy="40px">Existente</tspan></text></g><g transform="translate(1025,670)"><path d="M422,0 L422,44 L450,30 L 422,16" style="fill:#444444" /><path d="M0,30 L422,30" style="stroke:#444444; stroke-width: 2; fill: none; stroke-dasharray: 8 8;" /><text x="225" y="55" text-anchor="middle" dominant-baseline="hanging" fill="#444444" font-size="30px" font-family="Tahoma, Verdana, Helvetica, Arial"><tspan x="225" dy="40px">Relationship</tspan></text></g></svg>