<svg xmlns="http://www.w3.org/2000/svg" xmlns:xlink="http://www.w3.org/1999/xlink" version="1.1" viewBox="0 0 2295 1735" style="background: #ffffff"><defs joint-selector="defs"></defs><g joint-selector="layers"  transform="matrix(1,0,0,1,0,0)"><g ></g><g ><!--z-index:1--><!--z-index:2--><!--z-index:3--><!--z-index:4--><!--z-index:5--><!--z-index:6--><!--z-index:7--><!--z-index:8--><!--z-index:9--><g   id="j_2"  transform="translate(20,1691)"><g id="v-5"><text  id="v-6" font-size="24px" xml:space="preserve" y="0.8em" font-weight="normal" text-anchor="start" fill="#444444" pointer-events="none" display="block" font-family="Open Sans, Tahoma, Arial"><tspan dy="0"  display="block">Monday, September 28, 2026 at 10:24 PM Ecuador Time</tspan></text></g></g><!--z-index:10--><g   id="j_1"  transform="translate(20,1645)"><g id="v-3"><text  id="v-4" font-size="36px" xml:space="preserve" y="0.8em" font-weight="normal" text-anchor="start" fill="#444444" pointer-events="none" display="block" font-family="Open Sans, Tahoma, Arial"><tspan dy="0"  display="block">System Context View: Sistema de Ahorro Programado</tspan></text></g></g><!--z-index:11--><g   id="j_3"  transform="translate(204,159)" style=""><g  id="v-13" style="opacity: 1;"><rect  x="0" y="160" width="400" height="240" rx="70" id="v-15" stroke-width="2" pointer-events="visiblePainted" fill="#08427b" stroke="#073b6f" stroke-dasharray=""></rect><circle  cx="200" cy="88.88888888888889" r="88.88888888888889" id="v-14" stroke-width="2" pointer-events="visiblePainted" fill="#08427b" stroke="#073b6f" stroke-dasharray=""></circle><line  x1="80" y1="266.6666666666667" x2="80" y2="400" id="v-21" stroke="#073b6f" stroke-width="1" stroke-dasharray=""></line><line  x1="320" y1="266.6666666666667" x2="320" y2="400" id="v-22" stroke="#073b6f" stroke-width="1" stroke-dasharray=""></line><text  id="v-16" font-size="33.599999999999994px" xml:space="preserve" y="202.5" font-weight="bold" text-anchor="middle" pointer-events="visible" font-family="Open Sans, Tahoma, Arial" fill="#ffffff" dominant-baseline="hanging" transform="matrix(1,0,0,1,200,0)"><tspan dy="0" >Cliente Bancario</tspan></text><text  id="v-17" font-size="16.799999999999997px" xml:space="preserve" y="244.1" text-anchor="middle" font-family="Open Sans, Tahoma, Arial" fill="#ffffff" dominant-baseline="hanging" transform="matrix(1,0,0,1,200,0)" style="display: block;"><tspan dy="0" >[Person]</tspan></text><text  id="v-18" font-size="24px" xml:space="preserve" y="275.9" text-anchor="middle" font-family="Open Sans, Tahoma, Arial" fill="#ffffff" dominant-baseline="hanging" transform="matrix(1,0,0,1,200,0)" style="display: block;"><tspan dy="0" >Usuario que gestiona sus</tspan><tspan dy="1.2em" x="0" >planes de ahorro y realiza</tspan><tspan dy="1.2em" x="0" >simulaciones.</tspan></text><g  id="v-19" font-weight="normal" text-anchor="middle" color="#ffffff" transform="matrix(1,0,0,1,197.5,368)" display="none"><g ></g><g ></g><g ></g><g ></g></g><image  id="v-20"></image></g></g><!--z-index:12--><g   id="j_4"  transform="translate(1634,224)" style=""><g  id="v-29" style="opacity: 1;"><rect  id="v-30" rx="1" ry="1" stroke-width="2" pointer-events="visiblePainted" fill="#999999" stroke="#8a8a8a" stroke-dasharray="" width="450" height="300"></rect><text  id="v-31" font-size="33.599999999999994px" xml:space="preserve" y="72.5" font-weight="bold" text-anchor="middle" pointer-events="visible" font-family="Open Sans, Tahoma, Arial" fill="#ffffff" dominant-baseline="hanging" transform="matrix(1,0,0,1,225,0)"><tspan dy="0" >Core Bancario Legacy</tspan></text><text  id="v-32" font-size="16.799999999999997px" xml:space="preserve" y="114.1" text-anchor="middle" font-family="Open Sans, Tahoma, Arial" fill="#ffffff" dominant-baseline="hanging" transform="matrix(1,0,0,1,225,0)" style="display: block;"><tspan dy="0" >[Software System]</tspan></text><text  id="v-33" font-size="24px" xml:space="preserve" y="145.89999999999998" text-anchor="middle" font-family="Open Sans, Tahoma, Arial" fill="#ffffff" dominant-baseline="hanging" transform="matrix(1,0,0,1,225,0)" style="display: block;"><tspan dy="0" >Sistema bancario central que</tspan><tspan dy="1.2em" x="0" >maneja las cuentas asociadas y</tspan><tspan dy="1.2em" x="0" >saldos primarios.</tspan></text><g  id="v-34" color="#ffffff" transform="matrix(1,0,0,1,222.5,268)" display="none"><g ></g><g ></g><g ></g><g ></g></g><image  id="v-35"></image></g></g><!--z-index:13--><g   id="j_5"  transform="translate(199,1194)" style=""><g  id="v-42" style="opacity: 1;"><rect  id="v-43" rx="1" ry="1" stroke-width="2" pointer-events="visiblePainted" fill="#999999" stroke="#8a8a8a" stroke-dasharray="" width="450" height="300"></rect><text  id="v-44" font-size="33.599999999999994px" xml:space="preserve" y="66.74000000000001" font-weight="bold" text-anchor="middle" pointer-events="visible" font-family="Open Sans, Tahoma, Arial" fill="#ffffff" dominant-baseline="hanging" transform="matrix(1,0,0,1,225,0)"><tspan dy="0" >Sistema de</tspan><tspan dy="1.2em" x="0" >Notificaciones</tspan></text><text  id="v-45" font-size="16.799999999999997px" xml:space="preserve" y="148.66" text-anchor="middle" font-family="Open Sans, Tahoma, Arial" fill="#ffffff" dominant-baseline="hanging" transform="matrix(1,0,0,1,225,0)" style="display: block;"><tspan dy="0" >[Software System]</tspan></text><text  id="v-46" font-size="24px" xml:space="preserve" y="180.45999999999998" text-anchor="middle" font-family="Open Sans, Tahoma, Arial" fill="#ffffff" dominant-baseline="hanging" transform="matrix(1,0,0,1,225,0)" style="display: block;"><tspan dy="0" >Servicio externo para envío de</tspan><tspan dy="1.2em" x="0" >SMS y correos.</tspan></text><g  id="v-47" color="#ffffff" transform="matrix(1,0,0,1,222.5,268)" display="none"><g ></g><g ></g><g ></g><g ></g></g><image  id="v-48"></image></g></g><!--z-index:14--><g   id="j_6"  transform="translate(899,704)" style=""><g  id="v-55" style="opacity: 1;"><rect  id="v-56" rx="1" ry="1" stroke-width="2" pointer-events="visiblePainted" fill="#1168bd" stroke="#0f5eaa" stroke-dasharray="" width="450" height="300"></rect><text  id="v-57" font-size="33.599999999999994px" xml:space="preserve" y="66.74000000000001" font-weight="bold" text-anchor="middle" pointer-events="visible" font-family="Open Sans, Tahoma, Arial" fill="#ffffff" dominant-baseline="hanging" transform="matrix(1,0,0,1,225,0)"><tspan dy="0" >Sistema de Ahorro</tspan><tspan dy="1.2em" x="0" >Programado</tspan></text><text  id="v-58" font-size="16.799999999999997px" xml:space="preserve" y="148.66" text-anchor="middle" font-family="Open Sans, Tahoma, Arial" fill="#ffffff" dominant-baseline="hanging" transform="matrix(1,0,0,1,225,0)" style="display: block;"><tspan dy="0" >[Software System]</tspan></text><text  id="v-59" font-size="24px" xml:space="preserve" y="180.45999999999998" text-anchor="middle" font-family="Open Sans, Tahoma, Arial" fill="#ffffff" dominant-baseline="hanging" transform="matrix(1,0,0,1,225,0)" style="display: block;"><tspan dy="0" >Permite crear, simular, debitar y</tspan><tspan dy="1.2em" x="0" >consultar planes de ahorro.</tspan></text><g  id="v-60" color="#ffffff" transform="matrix(1,0,0,1,210,268)" display="none"><g  transform="translate(5 0)"><svg xmlns="http://www.w3.org/2000/svg" width="20" height="20" fill="currentColor" viewBox="0 0 16 16"><path fill-rule="evenodd" d="M6.5 12a5.5 5.5 0 1 0 0-11 5.5 5.5 0 0 0 0 11zM13 6.5a6.5 6.5 0 1 1-13 0 6.5 6.5 0 0 1 13 0z"></path><path d="M10.344 11.742c.03.04.062.078.098.115l3.85 3.85a1 1 0 0 0 1.415-1.414l-3.85-3.85a1.007 1.007 0 0 0-.115-.1 6.538 6.538 0 0 1-1.398 1.4z"></path><path fill-rule="evenodd" d="M6.5 3a.5.5 0 0 1 .5.5V6h2.5a.5.5 0 0 1 0 1H7v2.5a.5.5 0 0 1-1 0V7H3.5a.5.5 0 0 1 0-1H6V3.5a.5.5 0 0 1 .5-.5z"></path></svg></g><g ></g><g ></g><g ></g></g><image  id="v-61"></image></g></g><!--z-index:15--><g   id="j_7" ><path  stroke="#444444" d="M 604 497 L 906 704" id="v-77" stroke-width="2" stroke-dasharray="8 8" fill="none" style="opacity: 1;"></path><path  fill="black" stroke="black" d="M 0 0 0 0" transform="matrix(0.8240435178242281,0.5665265048802846,-0.5665265048802846,0.8240435178242281,604,496.5)"></path><path  fill="#444444" stroke="#444444" d="M 20 0 L 0 10 L 20 20 z" id="v-79" transform="matrix(-0.8240435178242281,-0.5665265048802844,0.5665265048802844,-0.8240435178242281,900.1547599731895,712.2404170239201)" style="opacity: 1;"></path><path  d="M 604 497 L 906 704" id="v-78" fill="none" style="cursor: default;"></path><g ><g id="v-68"  label-idx="0" cursor="move" transform="matrix(1,0,0,1,755,587.0999755859375)" style="cursor: default; opacity: 1;"><rect joint-selector="rect" id="v-72" fill="#ffffff" rx="3" ry="3" pointer-events="none" width="170.7538299560547" height="147.9038543701172" transform="matrix(1,0,0,1,-85.4,-73.9)"></rect><text joint-selector="text" id="v-71" font-size="24px" xml:space="preserve" y="0.8em" fill="#444444" text-anchor="middle" pointer-events="none" font-family="Open Sans, Tahoma, Arial" font-weight="normal" transform="matrix(1,0,0,1,0,-67.3)"><tspan dy="0" >Consulta saldo,</tspan><tspan dy="1.2em" x="0" >simula</tspan><tspan dy="1.2em" x="0" >rendimientos y</tspan><tspan dy="1.2em" x="0" >crea/cancela</tspan><tspan dy="1.2em" x="0" >planes</tspan></text></g><g id="v-69"  label-idx="1" cursor="move" transform="matrix(1,0,0,1,755,675.0999755859375)" style="cursor: default; opacity: 1;"><rect joint-selector="rect" id="v-74" fill="#ffffff" rx="3" ry="3"  pointer-events="none" width="61.21211624145508" height="22.376310348510742" transform="matrix(1,0,0,1,-30.6,-11.2)" style="display: block;"></rect><text joint-selector="text" id="v-73" font-size="16.799999999999997px" xml:space="preserve" y="0.8em" fill="#444444" text-anchor="middle" pointer-events="none"  font-family="Open Sans, Tahoma, Arial" font-weight="normal" transform="matrix(1,0,0,1,0,-7.4)" style="display: block;"><tspan dy="0" >[HTTPS]</tspan></text></g><g id="v-70"  label-idx="2" cursor="move" transform="matrix(1,0,0,1,745,683.5)" style="cursor: default; opacity: 1;"><rect joint-selector="rect" id="v-76" fill="#ffffff" rx="3" ry="3"  width="0" height="0" transform="matrix(1,0,0,1,0,0)" display="none"></rect><text joint-selector="text" id="v-75" fill="#000000" font-size="14" text-anchor="middle" pointer-events="none"></text></g></g><g  display="none"></g><g  id="v-81" display="none"><g  id="v-66"><path  end="source" d="M 26 0 L 0 13 L 26 26 z"></path></g><g  id="v-67"><path  end="target" d="M 26 0 L 0 13 L 26 26 z"></path></g></g><g  id="v-80" display="none"><g  id="v-65" transform="translate(636.9935210353095, 519.614764418242) "><g  event="remove"><circle r="11"></circle><path transform="scale(.8) translate(-16, -16)" d="M24.778,21.419 19.276,15.917 24.777,10.415 21.949,7.585 16.447,13.087 10.945,7.585 8.117,10.415 13.618,15.917 8.116,21.419 10.946,24.248 16.447,18.746 21.948,24.248z"></path><title>Remove link.</title></g><g  event="link:options"><circle r="11" transform="translate(25)"></circle><path fill="white" transform="scale(.55) translate(29, -16)" d="M31.229,17.736c0.064-0.571,0.104-1.148,0.104-1.736s-0.04-1.166-0.104-1.737l-4.377-1.557c-0.218-0.716-0.504-1.401-0.851-2.05l1.993-4.192c-0.725-0.91-1.549-1.734-2.458-2.459l-4.193,1.994c-0.647-0.347-1.334-0.632-2.049-0.849l-1.558-4.378C17.165,0.708,16.588,0.667,16,0.667s-1.166,0.041-1.737,0.105L12.707,5.15c-0.716,0.217-1.401,0.502-2.05,0.849L6.464,4.005C5.554,4.73,4.73,5.554,4.005,6.464l1.994,4.192c-0.347,0.648-0.632,1.334-0.849,2.05l-4.378,1.557C0.708,14.834,0.667,15.412,0.667,16s0.041,1.165,0.105,1.736l4.378,1.558c0.217,0.715,0.502,1.401,0.849,2.049l-1.994,4.193c0.725,0.909,1.549,1.733,2.459,2.458l4.192-1.993c0.648,0.347,1.334,0.633,2.05,0.851l1.557,4.377c0.571,0.064,1.148,0.104,1.737,0.104c0.588,0,1.165-0.04,1.736-0.104l1.558-4.377c0.715-0.218,1.399-0.504,2.049-0.851l4.193,1.993c0.909-0.725,1.733-1.549,2.458-2.458l-1.993-4.193c0.347-0.647,0.633-1.334,0.851-2.049L31.229,17.736zM16,20.871c-2.69,0-4.872-2.182-4.872-4.871c0-2.69,2.182-4.872,4.872-4.872c2.689,0,4.871,2.182,4.871,4.872C20.871,18.689,18.689,20.871,16,20.871z"></path><title>Link options.</title></g></g></g></g><!--z-index:16--><g   id="j_8" ><path  stroke="#444444" d="M 1349 707 L 1634 521" id="v-97" stroke-width="2" stroke-dasharray="8 8" fill="none" style="opacity: 1;"></path><path  fill="black" stroke="black" d="M 0 0 0 0" transform="matrix(0.8372739293320433,-0.5467836567243763,0.5467836567243763,0.8372739293320433,1349,707.0599975585938)"></path><path  fill="#444444" stroke="#444444" d="M 20 0 L 0 10 L 20 20 z" id="v-99" transform="matrix(-0.8372737837147174,0.5467838797038923,-0.5467838797038923,-0.8372737837147174,1639.4678959701237,529.3127359541708)" style="opacity: 1;"></path><path  d="M 1349 707 L 1634 521" id="v-98" fill="none" style="cursor: default;"></path><g ><g id="v-88"  label-idx="0" cursor="move" transform="matrix(1,0,0,1,1491.5,600.5999755859375)" style="cursor: default; opacity: 1;"><rect joint-selector="rect" id="v-92" fill="#ffffff" rx="3" ry="3" pointer-events="none" width="177.10096740722656" height="119.10383224487305" transform="matrix(1,0,0,1,-88.6,-59.5)"></rect><text joint-selector="text" id="v-91" font-size="24px" xml:space="preserve" y="0.8em" fill="#444444" text-anchor="middle" pointer-events="none" font-family="Open Sans, Tahoma, Arial" font-weight="normal" transform="matrix(1,0,0,1,0,-52.9)"><tspan dy="0" >Valida cuentas</tspan><tspan dy="1.2em" x="0" >origen y ejecuta</tspan><tspan dy="1.2em" x="0" >débitos (vía</tspan><tspan dy="1.2em" x="0" >adaptador)</tspan></text></g><g id="v-89"  label-idx="1" cursor="move" transform="matrix(1,0,0,1,1491.5,674.2000122070312)" style="cursor: default; opacity: 1;"><rect joint-selector="rect" id="v-94" fill="#ffffff" rx="3" ry="3"  pointer-events="none" width="107.06741333007812" height="22.376310348510742" transform="matrix(1,0,0,1,-53.5,-11.2)" style="display: block;"></rect><text joint-selector="text" id="v-93" font-size="16.799999999999997px" xml:space="preserve" y="0.8em" fill="#444444" text-anchor="middle" pointer-events="none"  font-family="Open Sans, Tahoma, Arial" font-weight="normal" transform="matrix(1,0,0,1,0,-7.4)" style="display: block;"><tspan dy="0" >[SOAP / REST]</tspan></text></g><g id="v-90"  label-idx="2" cursor="move" transform="matrix(1,0,0,1,1481.5,682.5999755859375)" style="cursor: default; opacity: 1;"><rect joint-selector="rect" id="v-96" fill="#ffffff" rx="3" ry="3"  width="0" height="0" transform="matrix(1,0,0,1,0,0)" display="none"></rect><text joint-selector="text" id="v-95" fill="#000000" font-size="14" text-anchor="middle" pointer-events="none"></text></g></g><g  display="none"></g><g  id="v-101" display="none"><g  id="v-86"><path  end="source" d="M 26 0 L 0 13 L 26 26 z"></path></g><g  id="v-87"><path  end="target" d="M 26 0 L 0 13 L 26 26 z"></path></g></g><g  id="v-100" display="none"><g  id="v-85" transform="translate(1382.4974074728984, 685.138534070319) "><g  event="remove"><circle r="11"></circle><path transform="scale(.8) translate(-16, -16)" d="M24.778,21.419 19.276,15.917 24.777,10.415 21.949,7.585 16.447,13.087 10.945,7.585 8.117,10.415 13.618,15.917 8.116,21.419 10.946,24.248 16.447,18.746 21.948,24.248z"></path><title>Remove link.</title></g><g  event="link:options"><circle r="11" transform="translate(25)"></circle><path fill="white" transform="scale(.55) translate(29, -16)" d="M31.229,17.736c0.064-0.571,0.104-1.148,0.104-1.736s-0.04-1.166-0.104-1.737l-4.377-1.557c-0.218-0.716-0.504-1.401-0.851-2.05l1.993-4.192c-0.725-0.91-1.549-1.734-2.458-2.459l-4.193,1.994c-0.647-0.347-1.334-0.632-2.049-0.849l-1.558-4.378C17.165,0.708,16.588,0.667,16,0.667s-1.166,0.041-1.737,0.105L12.707,5.15c-0.716,0.217-1.401,0.502-2.05,0.849L6.464,4.005C5.554,4.73,4.73,5.554,4.005,6.464l1.994,4.192c-0.347,0.648-0.632,1.334-0.849,2.05l-4.378,1.557C0.708,14.834,0.667,15.412,0.667,16s0.041,1.165,0.105,1.736l4.378,1.558c0.217,0.715,0.502,1.401,0.849,2.049l-1.994,4.193c0.725,0.909,1.549,1.733,2.459,2.458l4.192-1.993c0.648,0.347,1.334,0.633,2.05,0.851l1.557,4.377c0.571,0.064,1.148,0.104,1.737,0.104c0.588,0,1.165-0.04,1.736-0.104l1.558-4.377c0.715-0.218,1.399-0.504,2.049-0.851l4.193,1.993c0.909-0.725,1.733-1.549,2.458-2.458l-1.993-4.193c0.347-0.647,0.633-1.334,0.851-2.049L31.229,17.736zM16,20.871c-2.69,0-4.872-2.182-4.872-4.871c0-2.69,2.182-4.872,4.872-4.872c2.689,0,4.871,2.182,4.871,4.872C20.871,18.689,18.689,20.871,16,20.871z"></path><title>Link options.</title></g></g></g></g><!--z-index:17--><g   id="j_9" ><path  stroke="#444444" d="M 638 1194 L 910 1004" id="v-117" stroke-width="2" stroke-dasharray="8 8" fill="none" style="opacity: 1;"></path><path  fill="black" stroke="black" d="M 0 0 0 0" transform="matrix(0.8192235261641464,-0.5734743361120724,0.5734743361120724,0.8192235261641464,638.2899780273438,1194)"></path><path  fill="#444444" stroke="#444444" d="M 20 0 L 0 10 L 20 20 z" id="v-119" transform="matrix(-0.8192233734386637,0.5734745542844736,-0.5734745542844736,-0.8192233734386637,915.4447405077001,1012.1922294024794)" style="opacity: 1;"></path><path  d="M 638 1194 L 910 1004" id="v-118" fill="none" style="cursor: default;"></path><g ><g id="v-108"  label-idx="0" cursor="move" transform="matrix(1,0,0,1,774,1085.5999755859375)" style="cursor: default; opacity: 1;"><rect joint-selector="rect" id="v-112" fill="#ffffff" rx="3" ry="3" pointer-events="none" width="181.5116729736328" height="90.3038444519043" transform="matrix(1,0,0,1,-90.8,-45.1)"></rect><text joint-selector="text" id="v-111" font-size="24px" xml:space="preserve" y="0.8em" fill="#444444" text-anchor="middle" pointer-events="none" font-family="Open Sans, Tahoma, Arial" font-weight="normal" transform="matrix(1,0,0,1,0,-38.5)"><tspan dy="0" >Consume</tspan><tspan dy="1.2em" x="0" >eventos de</tspan><tspan dy="1.2em" x="0" >débitos y planes</tspan></text></g><g id="v-109"  label-idx="1" cursor="move" transform="matrix(1,0,0,1,774,1144.800048828125)" style="cursor: default; opacity: 1;"><rect joint-selector="rect" id="v-114" fill="#ffffff" rx="3" ry="3"  pointer-events="none" width="59.92117691040039" height="22.376310348510742" transform="matrix(1,0,0,1,-30,-11.2)" style="display: block;"></rect><text joint-selector="text" id="v-113" font-size="16.799999999999997px" xml:space="preserve" y="0.8em" fill="#444444" text-anchor="middle" pointer-events="none"  font-family="Open Sans, Tahoma, Arial" font-weight="normal" transform="matrix(1,0,0,1,0,-7.4)" style="display: block;"><tspan dy="0" >[AMQP]</tspan></text></g><g id="v-110"  label-idx="2" cursor="move" transform="matrix(1,0,0,1,764,1153.199951171875)" style="cursor: default; opacity: 1;"><rect joint-selector="rect" id="v-116" fill="#ffffff" rx="3" ry="3"  width="0" height="0" transform="matrix(1,0,0,1,0,0)" display="none"></rect><text joint-selector="text" id="v-115" fill="#000000" font-size="14" text-anchor="middle" pointer-events="none"></text></g></g><g  display="none"></g><g  id="v-121" display="none"><g  id="v-106"><path  end="source" d="M 26 0 L 0 13 L 26 26 z"></path></g><g  id="v-107"><path  end="target" d="M 26 0 L 0 13 L 26 26 z"></path></g></g><g  id="v-120" display="none"><g  id="v-105" transform="translate(670.7919161296403, 1171.093882115325) "><g  event="remove"><circle r="11"></circle><path transform="scale(.8) translate(-16, -16)" d="M24.778,21.419 19.276,15.917 24.777,10.415 21.949,7.585 16.447,13.087 10.945,7.585 8.117,10.415 13.618,15.917 8.116,21.419 10.946,24.248 16.447,18.746 21.948,24.248z"></path><title>Remove link.</title></g><g  event="link:options"><circle r="11" transform="translate(25)"></circle><path fill="white" transform="scale(.55) translate(29, -16)" d="M31.229,17.736c0.064-0.571,0.104-1.148,0.104-1.736s-0.04-1.166-0.104-1.737l-4.377-1.557c-0.218-0.716-0.504-1.401-0.851-2.05l1.993-4.192c-0.725-0.91-1.549-1.734-2.458-2.459l-4.193,1.994c-0.647-0.347-1.334-0.632-2.049-0.849l-1.558-4.378C17.165,0.708,16.588,0.667,16,0.667s-1.166,0.041-1.737,0.105L12.707,5.15c-0.716,0.217-1.401,0.502-2.05,0.849L6.464,4.005C5.554,4.73,4.73,5.554,4.005,6.464l1.994,4.192c-0.347,0.648-0.632,1.334-0.849,2.05l-4.378,1.557C0.708,14.834,0.667,15.412,0.667,16s0.041,1.165,0.105,1.736l4.378,1.558c0.217,0.715,0.502,1.401,0.849,2.049l-1.994,4.193c0.725,0.909,1.549,1.733,2.459,2.458l4.192-1.993c0.648,0.347,1.334,0.633,2.05,0.851l1.557,4.377c0.571,0.064,1.148,0.104,1.737,0.104c0.588,0,1.165-0.04,1.736-0.104l1.558-4.377c0.715-0.218,1.399-0.504,2.049-0.851l4.193,1.993c0.909-0.725,1.733-1.549,2.458-2.458l-1.993-4.193c0.347-0.647,0.633-1.334,0.851-2.049L31.229,17.736zM16,20.871c-2.69,0-4.872-2.182-4.872-4.871c0-2.69,2.182-4.872,4.872-4.872c2.689,0,4.871,2.182,4.871,4.872C20.871,18.689,18.689,20.871,16,20.871z"></path><title>Link options.</title></g></g></g></g><!--z-index:18--></g><g ></g><g ></g><g ></g></g></svg>